<svg xmlns="http://www.w3.org/2000/svg" id="Layer_1" viewBox="0 0 512 512"><path d="m215.683 444.379h-4.204c-3.621-14.462-7.157-28.711-10.538-43.062-6.455-27.415-13.072-44.91-49.832-55.338l-35.534-25.523c-6.104-4.385-13.417-5.896-20.308-4.789l-23.663-55.854c-16.025-37.825-36.851-33.411-42.853-31.153-14.776 5.554-23.449 25.131-18.196 41.073l30.165 91.561c.318.966.641 1.955.97 2.964 4.926 15.12 11.058 33.937 25.167 43.633l41.132 28.269c3.26 2.241 5.569 4.917 7.105 8.215h-.908c-.001 0-.002 0-.003 0-4.515 0-8.748 1.748-11.92 4.924-3.173 3.176-4.918 7.411-4.913 11.928l.023 24.949c.009 9.274 7.561 16.819 16.834 16.819l101.497.005h.003c4.514 0 8.747-1.748 11.919-4.923 3.174-3.176 4.919-7.411 4.915-11.928l-.024-24.95c-.009-9.275-7.561-16.82-16.834-16.82zm-99.765-19.757-41.132-28.27c-10.198-7.008-15.515-23.322-19.786-36.432-.333-1.023-.66-2.028-.983-3.008l-30.165-91.561c-3.142-9.534 2.776-20.938 9.825-23.587 8.141-3.065 17.503 5.727 25.036 23.509l23.746 56.051c-1.901 1.522-3.629 3.325-5.118 5.397-4.256 5.925-5.946 13.174-4.76 20.411s5.104 13.566 11.028 17.822l48.562 34.883c3.142 2.256 7.515 1.538 9.77-1.602s1.538-7.514-1.602-9.77l-48.563-34.883c-2.888-2.074-4.798-5.17-5.38-8.717-.581-3.547.241-7.09 2.314-9.978 4.311-5.999 12.696-7.376 18.695-3.064l36.542 26.248c.675.484 1.431.845 2.231 1.064 31.167 8.555 35.336 20.769 41.134 45.389 3.134 13.308 6.396 26.503 9.732 39.852l-67.111-.004c-2.214-8.23-6.92-14.874-14.015-19.75zm101.806 63.559c-.373.373-1.026.818-2.018.818 0 0 0 0-.001 0l-101.498-.006c-1.562 0-2.833-1.271-2.834-2.832l-.023-24.951s0 0 0-.001c-.001-.99.443-1.644.816-2.018.374-.373 1.026-.818 2.018-.818h.001l91.806.005c.006 0 .012.001.019.001.008 0 .017-.001.025-.001h9.649c1.562 0 2.833 1.271 2.834 2.832l.024 24.95c0 .994-.445 1.647-.818 2.021zm265.525-259.521c-6.006-2.256-26.828-6.672-42.853 31.153l-23.667 55.864c-7.203-1.149-14.408.542-20.305 4.777l-35.533 25.524c-36.76 10.428-43.377 27.923-49.832 55.337-3.392 14.397-6.924 28.63-10.539 43.063h-4.204c-9.273 0-16.825 7.545-16.834 16.818l-.024 24.952c-.004 4.516 1.741 8.751 4.915 11.927 3.172 3.175 7.404 4.923 11.918 4.923h.003l101.498-.006c9.273 0 16.825-7.545 16.834-16.818l.023-24.95c.005-4.517-1.74-8.752-4.913-11.928-3.172-3.176-7.405-4.924-11.919-4.924-.001 0-.002 0-.003 0h-.909c1.535-3.297 3.845-5.974 7.105-8.215l41.132-28.269c14.111-9.697 20.242-28.518 25.169-43.641.328-1.006.649-1.993.967-2.956l30.166-91.561c5.254-15.939-3.419-35.517-18.195-41.07zm-85.433 229.714c.991 0 1.644.445 2.018.818.373.374.817 1.027.816 2.018v.001l-.023 24.952c-.001 1.561-1.272 2.831-2.834 2.831l-101.499.006c-.991 0-1.644-.445-2.018-.818-.373-.374-.818-1.027-.817-2.019l.024-24.952c.001-1.561 1.272-2.831 2.834-2.831h9.648c.008 0 .017.001.025.001.006 0 .012-.001.019-.001zm90.332-193.022-30.166 91.561c-.322.978-.648 1.979-.981 3.001-4.271 13.111-9.588 29.43-19.787 36.439l-41.132 28.269c-7.096 4.876-11.802 11.521-14.017 19.753l-67.112.004c3.33-13.322 6.588-26.504 9.733-39.853 5.798-24.619 9.967-36.833 41.134-45.388.801-.22 1.557-.58 2.231-1.064l36.541-26.248c2.889-2.075 6.431-2.896 9.979-2.315 3.546.581 6.642 2.492 8.717 5.38 2.074 2.888 2.896 6.431 2.314 9.978s-2.492 6.643-5.38 8.717l-48.562 34.883c-3.14 2.256-3.856 6.63-1.602 9.77 2.257 3.14 6.63 3.856 9.77 1.602l48.562-34.883c5.925-4.256 9.841-10.586 11.027-17.822 1.187-7.237-.504-14.486-4.76-20.411-1.474-2.051-3.194-3.86-5.116-5.4l23.745-56.048c7.533-17.782 16.895-26.568 25.036-23.509 7.05 2.646 12.968 14.05 9.826 23.584zm-122.088-25.15c6.798 6.372 13.898 12.751 21.148 19.226 2.106 1.879 4.747 2.819 7.389 2.819 2.641 0 5.283-.94 7.39-2.82 34.234-30.566 73.037-65.212 73.037-101.067 0-21.924-19.609-39.76-43.713-39.76-16.02 0-27.212 5.581-36.714 18.508-9.503-12.927-20.694-18.508-36.714-18.508-24.104 0-43.713 17.836-43.713 39.76 0 .56.028 1.127.046 1.692-1.485-.099-2.979-.166-4.492-.166-24.076 0-39.742 8.566-53.725 29.489-13.981-20.924-29.648-29.489-53.725-29.489-1.512 0-3.007.067-4.492.166.019-.565.046-1.131.046-1.692 0-21.924-19.61-39.76-43.714-39.76-16.019 0-27.211 5.581-36.713 18.508-9.503-12.927-20.694-18.508-36.714-18.508-24.104 0-43.714 17.836-43.714 39.76 0 35.854 38.803 70.5 73.038 101.068 2.106 1.88 4.747 2.819 7.389 2.819s5.284-.94 7.391-2.821c7.255-6.479 14.359-12.861 21.146-19.223 14.145 42.177 60.07 83.189 101.405 120.095 2.468 2.204 5.561 3.306 8.655 3.305 3.093 0 6.187-1.102 8.653-3.304 41.339-36.908 87.265-77.92 101.41-120.097zm-37.89-81.843c0-14.204 13.329-25.76 29.713-25.76 12.725 0 19.897 4.099 27.409 15.664 2.058 3.167 5.536 5.058 9.305 5.058s7.247-1.891 9.305-5.059c7.512-11.564 14.685-15.663 27.409-15.663 16.384 0 29.713 11.556 29.713 25.76 0 28.993-34.876 60.715-66.427 88.896-8.62-7.707-16.997-15.279-24.801-22.818.429-3.201.652-6.406.652-9.615 0-24.397-17.674-45.12-42.042-52.267-.156-1.417-.236-2.82-.236-4.196zm-210.768 88.896c-31.552-28.184-66.427-59.904-66.427-88.896 0-14.204 13.329-25.76 29.714-25.76 12.725 0 19.897 4.099 27.408 15.663 2.057 3.167 5.535 5.059 9.304 5.059h.001c3.77 0 7.248-1.891 9.306-5.059 7.512-11.564 14.685-15.663 27.408-15.663 16.385 0 29.714 11.556 29.714 25.76 0 1.376-.08 2.779-.236 4.197-24.369 7.147-42.043 27.87-42.043 52.267 0 3.209.223 6.415.652 9.616-7.785 7.52-16.17 15.099-24.801 22.816zm138.598 102.001c-47.233-42.173-100.449-89.896-100.449-134.434 0-22.573 20.961-40.938 46.725-40.938 19.668 0 31.275 6.612 42.828 24.396 2.41 3.711 6.483 5.927 10.896 5.927 4.412 0 8.485-2.216 10.896-5.926 11.554-17.785 23.161-24.397 42.829-24.397 25.764 0 46.724 18.365 46.724 40.938-.001 44.538-53.216 92.261-100.449 134.434zm86.618-257.284 27.319-47.317c1.934-3.348 6.214-4.494 9.562-2.562 3.348 1.934 4.495 6.215 2.562 9.562l-27.319 47.317c-1.297 2.246-3.65 3.501-6.069 3.501-1.188 0-2.391-.303-3.493-.938-3.347-1.934-4.494-6.215-2.562-9.563zm-45.404-16.829 14.142-52.776c1-3.736 4.843-5.947 8.573-4.95 3.734 1.001 5.95 4.839 4.95 8.573l-14.142 52.776c-.838 3.128-3.667 5.19-6.757 5.19-.601 0-1.21-.078-1.816-.24-3.734-1.001-5.95-4.839-4.95-8.573zm-110.093-49.153c-1-3.734 1.216-7.572 4.95-8.573 3.733-.999 7.573 1.215 8.573 4.95l14.142 52.776c1 3.734-1.216 7.572-4.95 8.573-.606.162-1.217.24-1.816.24-3.091 0-5.919-2.062-6.757-5.19zm-57.183 25.664c-1.933-3.349-.785-7.629 2.562-9.562 3.35-1.931 7.63-.786 9.562 2.562l27.318 47.318c1.933 3.349.785 7.629-2.562 9.562-1.103.636-2.306.938-3.493.938-2.42 0-4.772-1.255-6.069-3.501zm119.062 18.984v-54.638c0-3.866 3.134-7 7-7s7 3.134 7 7v54.638c0 3.866-3.134 7-7 7s-7-3.134-7-7z"></path></svg>